<svg version="1.1" xmlns="http://www.w3.org/2000/svg" xmlns:xlink="http://www.w3.org/1999/xlink" x="0px" y="0px" viewBox="0 0 256 256" enable-background="new 0 0 256 256" xml:space="preserve"><g><g><g><path fill="#ffffff" d="M236.8,28.4c-30.2,18.9-59,40.9-87.1,66.4c-16,14.6-37,35.9-50.9,51.9c-3.2,3.7-6,6.7-6.2,6.8c-0.2,0.1-13.1-9.9-28.8-22.2L35.4,109l-9.8,7.9c-5.4,4.3-11.1,8.9-12.7,10.2l-2.9,2.3l8.5,8.6c4.7,4.7,26.9,27.2,49.4,50.2c22.5,22.9,41.1,41.5,41.3,41.3c0.2-0.2,1.5-3,2.8-6.1c1.3-3.2,4.8-10.6,7.8-16.4c21.7-42.8,57.3-93.5,94.4-134.3c2.9-3.2,11.2-11.8,18.6-19L246,40.3l-3-6.8c-1.7-3.7-3-6.8-3.1-6.9C239.9,26.6,238.5,27.4,236.8,28.4z"/></g></g></g></svg>