<svg version="1.1" xmlns="http://www.w3.org/2000/svg" xmlns:xlink="http://www.w3.org/1999/xlink" x="0px" y="0px" viewBox="0 0 256 256" enable-background="new 0 0 256 256" xml:space="preserve"><g><g><g><path fill="#ffffff" d="M147.3,7.7c-4.8,2.4-7,7.9-5.6,14c0.4,2,0.3,2.3-1,2.9c-2.2,1-8.6,7-10.7,10l-1.8,2.7l-2.9-1c-5.1-1.7-10.5,0.8-13,5.8c-1.5,3.2-1.7,6.6-0.4,9.5c1.2,3,5,6.1,8,6.5c2.5,0.4,2.5,0.4,2.5,3.4c0,3.2,2,11.1,3.6,14.2c1,1.8,0.9,1.9-1.3,4.3c-5.1,5.7-4.2,13.3,2.1,17.6c4.1,2.8,11.6,1.6,14.7-2.5l1-1.3l2.7,1.4c3.2,1.6,11.5,3.8,14.4,3.8c1.9,0,2.1,0.2,2.5,2.6c0.5,2.9,3.2,6.4,6.1,7.9c2.3,1.1,7.8,1.1,10,0c2.7-1.4,5.7-5.1,6.2-7.8c0.3-1.3,0.1-3.7-0.3-5.3c-0.5-2.3-0.5-3,0.2-3.4c2.7-1.6,7.8-6.2,10.3-9.5c2.1-2.7,3.2-3.7,3.9-3.4c0.6,0.2,2.3,0.6,4,0.7c6.4,0.7,11.9-4.3,11.9-10.9c0-5.6-3.1-9.8-8.3-11.2c-2.4-0.6-2.5-0.8-2.9-3.7c-0.7-5.1-1.7-9.2-3.2-12.8l-1.5-3.4l1.7-1.3c2.1-1.7,4.1-5.8,4.1-8.7c0-2.6-1.8-6.9-3.6-8.4c-1.8-1.6-5.6-3-8-3c-2.6,0-7.3,2.3-8.5,4.1l-1,1.5l-3.9-1.8c-2.2-1-6.5-2.4-9.8-3l-5.8-1.1l-0.4-2.4c-0.7-4.6-6.1-8.8-11.2-8.8C151.1,6.3,148.9,7,147.3,7.7z M170.3,38.5c5.8,2,10.9,7.2,13,13.3c1.4,4.1,0.9,12.4-1,16c-2.2,4.2-6.1,8.1-10.2,10.1c-3,1.5-4.3,1.8-9,1.8c-4.8,0-5.9-0.3-9.7-2.1c-4.6-2.3-7.8-5.5-10.2-10.2c-2-4.1-2.1-13-0.1-17.3C148,39.7,159.6,34.7,170.3,38.5z"/><path fill="#ffffff" d="M83.9,71.6c-4.3,1.5-7.5,4.1-9.8,7.7c-2.5,3.8-3.3,7.2-3,11.6l0.3,3.7l-3.2,1c-7.9,2.6-15.9,7.2-22.4,12.8l-3.4,2.8l-2.1-1.6c-7.1-5.5-18.4-4.6-24.8,1.8c-3.6,3.6-5.1,7-5.4,12.5c-0.3,4.3-0.1,5.3,1.5,8.8c2,4.4,5.4,7.8,9.7,9.7c2.2,1,2.7,1.5,2.4,2.4c-1.7,5.5-2.1,20.3-0.7,27.6c0.5,2.4,0.8,4.4,0.8,4.5c-8.5,3-13.1,8.9-13.6,17.5c-0.3,4.3-0.1,5.3,1.5,8.8c3.3,7.3,9.4,11.2,17.5,11.1c5-0.1,7.7-0.9,11.4-3.7l2.2-1.7l2.6,2.4c5.5,5.1,15.6,10.9,22.6,13.2l3.6,1.1l-0.3,4c-0.4,6,1.1,10,5.5,14.4c4.1,4.1,7.9,5.7,13.4,5.7c7.2,0,13.6-3.9,17-10.4c1.4-2.7,1.7-4.1,1.7-8.5v-5.1l2.5-0.8c7-2.1,16.1-7.2,22.6-12.7l3.5-3l2.2,1.5c4,2.8,6.5,3.6,11.4,3.6c7.8,0.1,13.7-3.5,17.2-10.6c1.9-3.7,2.4-10.1,0.9-14.4c-1.3-4.1-6.2-9.6-10-11.2c-1.5-0.6-2.8-1.2-2.9-1.3c-0.1-0.1,0.3-2.3,0.8-5c1.5-7.6,1.1-21.3-0.7-27.2c-0.3-0.8,0.3-1.3,2-2.1c3.7-1.5,7.4-5,9.5-8.6c1.7-3,1.9-4,1.9-8.8c0-4.3-0.3-6-1.5-8.3c-3.4-6.9-9.5-10.7-17-10.7c-5,0-8.3,1-11.4,3.4l-2.2,1.7l-5.3-4.2c-5.4-4.3-14.9-9.5-20.5-11.4l-3.2-1v-4.9c-0.1-5.6-1.3-9.2-4.7-13.1C99.5,71.5,90.5,69.2,83.9,71.6z M98.9,125.5c12.3,3.2,22.6,13.5,25.7,25.5c1.6,6,1.3,14.5-0.6,20.3c-8.5,25.5-40.1,33.3-59.1,14.6c-7.2-7.1-10.7-15.4-10.7-25.4c0-10.2,3.4-18.3,10.6-25.4c7.4-7.3,14.6-10.4,24.8-10.4C92.9,124.6,97,125,98.9,125.5z"/><path fill="#ffffff" d="M216.2,118.7c-2,1.3-3.8,3-4.2,4.3c-0.2,0.6-2.5,0.9-8.3,1l-8,0.2l-1-1.7c-3.2-5.7-12.8-4.8-15.3,1.3c-1.3,3.3-1.3,4.1,0.3,7.3l1.3,2.7l-2.4,3.8c-1.4,2-3,5.1-3.6,6.7c-1.1,2.9-1.3,3-3.4,3c-9.7,0-11.4,14.2-2.2,17.2c1.2,0.4,2.8,0.5,3.6,0.4c1.2-0.3,1.6,0.1,2.9,3.2c0.9,2,2.7,5,4,6.7c2.4,3,2.4,3,1.4,5.1c-2.5,4.8,0.3,11.2,5.5,12.6c4,1.1,9.3-1.5,10.5-5.1c0.3-1,1-1.1,5.6-0.8c2.9,0.2,6.4,0,7.9-0.3c2.4-0.5,2.7-0.4,3,0.4c0.8,2.5,4,4.7,7.1,5c7.3,0.6,12.2-6.9,8.5-13l-1.2-2l2.8-4.2c1.6-2.3,3.2-5.3,3.6-6.6c0.7-2.3,1-2.5,3.4-2.8c3.6-0.4,6.3-2.4,7.6-5.6c2.4-6-2-12-8.6-12c-1.9,0-2.2-0.3-3.3-2.9c-0.6-1.6-2.4-4.5-3.9-6.5c-2.7-3.6-2.7-3.8-1.7-5.2c1.5-2.2,1.3-6.9-0.5-9.4C224.7,117.7,219.7,116.5,216.2,118.7z M211.8,140.3c5.9,3,9.1,8.1,9.2,14.7c0,12.7-12.4,20.6-23.7,15c-4.3-2-7.1-5.2-8.5-9.5c-1.3-3.9-0.9-9.3,1-12.9c1.6-3.2,5.7-6.8,9.2-8.1C202.4,138.2,208.5,138.6,211.8,140.3z"/></g></g></g></svg>