<svg version="1.1" xmlns="http://www.w3.org/2000/svg" xmlns:xlink="http://www.w3.org/1999/xlink" x="0px" y="0px" viewBox="0 0 256 256" enable-background="new 0 0 256 256" xml:space="preserve"><g><g><g><path fill="#000000" d="M18.2,10.7c-2.7,0.8-6.6,4.9-7.4,7.7c-0.4,1.5-0.7,11.3-0.7,26.4v24l1.6,3.2c1.2,2.4,2.3,3.6,4.4,4.9l2.9,1.7l52.1,0.2l52,0.2v2.4v2.5l-52.4,0.1L18.3,84l-2.5,1.7c-1.4,0.9-3.1,2.7-3.9,4L10.4,92l-0.2,25.1L10,142.2l1.6,3.3c1.2,2.5,2.3,3.7,4.5,5l2.9,1.7l52.1,0.2l52,0.2v2.4v2.5H71.2c-35.2,0-52.5,0.2-53.6,0.7c-2.5,0.9-5,3.5-6.4,6.4c-1,2.3-1.2,4.4-1.2,26.4c0,14.6,0.2,24.8,0.6,26.2c0.9,3.1,3.4,6,6.4,7.3c2.3,1.1,5.3,1.2,54.2,1.2h51.7v5.2v5.2H66.6H10.1v4.9v4.9H128h117.9v-4.9V236h-56.5h-56.5v-5.2v-5.2h51.8c48.8,0,51.8-0.1,54.2-1.2c3.1-1.4,5.6-4.2,6.4-7.3c0.4-1.4,0.6-11.6,0.6-26.2c0-22-0.1-24.1-1.2-26.4c-1.4-2.9-3.9-5.5-6.4-6.4c-1.2-0.5-18.4-0.7-53.6-0.7h-51.8v-2.5v-2.4l52.1-0.2l52-0.2l2.9-1.7c2.2-1.3,3.3-2.5,4.5-5l1.6-3.3l-0.2-25.1L245.6,92l-1.5-2.3c-0.8-1.3-2.6-3.1-3.9-4l-2.5-1.7l-52.4-0.2l-52.4-0.1v-2.5v-2.4l52.1-0.2l52-0.2l2.9-1.7c2.2-1.3,3.3-2.5,4.5-5l1.6-3.3l-0.2-25.1l-0.2-25.1l-1.5-2.3c-0.8-1.3-2.6-3.1-3.9-4l-2.5-1.7L129,10.2C61.5,10.1,19.5,10.3,18.2,10.7z M52.2,31.8c1.8,1.1,3.7,2.9,4.9,4.8c1.7,2.7,1.8,3.6,1.8,7.7s-0.2,5-1.8,7.7c-1.2,1.8-3,3.7-4.9,4.9c-2.7,1.7-3.6,1.8-7.7,1.8s-5-0.2-7.7-1.8c-9.8-6.1-9.2-20.6,1.1-25.7C42.4,28.9,47.8,29.1,52.2,31.8z M160.8,40.7c1.2,0.9,1.6,1.8,1.6,3.5c0,4.6-5.1,6.8-8.3,3.5C149.6,43.3,155.8,36.8,160.8,40.7z M190.5,40.8c2,1.9,2,5.5-0.2,7.2c-2.2,1.7-4.9,1.7-6.7-0.2C179.1,43.3,185.9,36.4,190.5,40.8z M215,40.8c2,1.9,2,5.5-0.2,7.2c-2.2,1.7-4.9,1.7-6.7-0.2C203.7,43.3,210.4,36.4,215,40.8z M52.2,105.6c1.8,1.1,3.7,2.9,4.9,4.8c1.7,2.7,1.8,3.6,1.8,7.7c0,4.2-0.2,5-1.8,7.7c-1.2,1.8-3,3.7-4.9,4.9c-2.7,1.7-3.6,1.8-7.7,1.8s-5-0.2-7.7-1.8c-9.8-6.1-9.2-20.6,1.1-25.7C42.4,102.6,47.8,102.9,52.2,105.6z M160.8,114.5c1.2,0.9,1.6,1.8,1.6,3.5c0,4.6-5.1,6.8-8.3,3.5C149.6,117,155.8,110.5,160.8,114.5z M190.5,114.5c2,1.9,2,5.5-0.2,7.2c-2.2,1.7-4.9,1.7-6.7-0.2C179.1,117,185.9,110.2,190.5,114.5z M215,114.5c2,1.9,2,5.5-0.2,7.2c-2.2,1.7-4.9,1.7-6.7-0.2C203.7,117,210.4,110.2,215,114.5z M48.8,177.4c6,1.8,10.4,7.7,10.4,14.1s-4.4,12.3-10.4,14.1c-4.2,1.2-4.5,1.2-8.7,0c-6-1.8-10.4-7.7-10.4-14.1c0-6.2,4-11.9,9.8-13.8C43.7,176.2,44.6,176.2,48.8,177.4z M159.9,187.2c1.9,0.9,2.5,2,2.5,4.3c0,0.8-0.2,1.9-0.4,2.5c-0.6,1.5-3.7,2.8-5.5,2.4c-1.9-0.5-4-3-4-4.8c0-1.7,1.6-4,3.3-4.7C157.7,186.1,157.9,186.1,159.9,187.2z M189.4,187.2c1.9,0.9,2.5,2,2.5,4.3c0,0.8-0.2,1.9-0.4,2.5c-0.6,1.5-3.7,2.8-5.5,2.4c-1.9-0.5-4-3-4-4.8c0-1.7,1.6-4,3.3-4.7C187.2,186.1,187.4,186.1,189.4,187.2z M213.9,187.2c1.9,0.9,2.5,2,2.5,4.3c0,0.8-0.2,1.9-0.4,2.5c-0.6,1.5-3.7,2.8-5.5,2.4c-1.9-0.5-4-3-4-4.8c0-1.7,1.6-4,3.3-4.7C211.7,186.1,212,186.1,213.9,187.2z"/><path fill="#000000" d="M41.9,40.4c-3.4,1.8-2.5,7.7,1.3,8.6c4.2,0.9,7.3-3.1,5.3-6.9C47.2,39.5,44.7,38.8,41.9,40.4z"/><path fill="#000000" d="M41.9,114.1c-3.4,1.8-2.5,7.7,1.3,8.6c4.2,0.9,7.3-3.1,5.3-6.9C47.2,113.2,44.7,112.6,41.9,114.1z"/><path fill="#000000" d="M40.8,188.5c-0.7,0.9-1.3,2.3-1.3,3c0,0.7,0.6,2.1,1.3,3c1,1.2,1.8,1.6,3.6,1.6c1.8,0,2.6-0.4,3.6-1.6c0.7-0.9,1.3-2.3,1.3-3c0-0.7-0.6-2.1-1.3-3c-1-1.2-1.8-1.6-3.6-1.6C42.6,186.9,41.8,187.3,40.8,188.5z"/></g></g></g></svg>