<svg version="1.1" xmlns="http://www.w3.org/2000/svg" xmlns:xlink="http://www.w3.org/1999/xlink" x="0px" y="0px" viewBox="0 0 256 256" enable-background="new 0 0 256 256" xml:space="preserve"><g><g><g><path fill="#000000" d="M74.3,35.6c-3.6,1.3-7.8,4.1-9.8,6.6L62.9,44H42.6c-13.9,0-21,0.2-22.6,0.7c-1.3,0.4-3.7,1.8-5.2,3.3c-6.1,5.5-6.3,14.2-0.5,20.2c4.1,4.2,5,4.3,28,4.3h20.2l3,2.9c4.5,4.3,8.8,6.2,15.3,6.5c4.3,0.2,6,0,8.7-0.9c6.8-2.4,12.2-7.6,14.8-14.2c1.8-4.8,1.8-12.2,0-17c-2.6-6.6-7.9-11.8-14.7-14.1C85.3,34.1,78.5,34.1,74.3,35.6z"/><path fill="#000000" d="M134.7,44.7c-3.1,1-7.6,5.3-8.7,8.5c-1.9,5.6-0.9,10.3,3,14.5c4.6,4.9,1.6,4.7,56.4,4.7c33.4,0,49.1-0.2,50.8-0.7c3.2-0.9,8.2-5.9,9.1-9.1c1.5-5.5,0.2-10.4-3.6-14.3c-4.4-4.5-1.8-4.3-56.4-4.3C152.7,44.1,136,44.3,134.7,44.7z"/><path fill="#000000" d="M125.5,103.5c-4.3,1.8-7.9,4.3-9.5,6.4l-1.2,1.7H68.5c-52.6,0-49.8-0.2-54.4,4.7c-5.4,5.8-5.4,13.3,0,19.1c4.6,4.9,1.8,4.7,54.2,4.7h46.1l2.7,2.7c1.5,1.5,4.5,3.6,6.7,4.6c3.7,1.8,4.4,1.9,10.2,1.9c5.4-0.1,6.6-0.2,9.5-1.5c5-2.4,9.1-6.4,11.7-11.7c2.1-4.3,2.3-4.8,2.3-10.1c0-5.2-0.2-6-1.9-9.7c-2.5-5.3-6.5-9.5-11.3-11.9c-3.4-1.7-4.6-2-9.5-2.1C129.7,102.1,128.5,102.2,125.5,103.5z"/><path fill="#000000" d="M183.2,112.8c-5.7,2.5-8.5,6.9-8.5,13c0,6,2.8,10.4,8.5,13c2.5,1.2,3.8,1.2,26.7,1.2c27.3,0,27.6-0.1,31.8-4.3c5.6-5.8,5.6-14.1,0-19.8c-4.2-4.3-4.6-4.3-31.8-4.3C187,111.5,185.7,111.6,183.2,112.8z"/><path fill="#000000" d="M89.2,175.2c-3.9,1.3-6.3,2.8-9.5,5.8l-3,2.8L48.3,184c-25.6,0.2-28.6,0.3-30.2,1.2c-2.4,1.3-5.3,4.3-6.5,6.5c-1.3,2.5-1.7,7.4-0.8,10.6c0.9,3.4,5.8,8.3,9.2,9.4c1.8,0.5,9.8,0.7,29.6,0.7h27.2l3.2,3c1.7,1.6,4.7,3.7,6.5,4.6c3.1,1.4,4.1,1.6,9.7,1.6c5.9,0,6.5-0.1,10.1-1.9c4.7-2.4,9.4-7.1,11.7-11.9c1.4-3.1,1.6-4.1,1.6-9.7c0-5.9-0.1-6.5-2-10.2c-2.5-5-6.2-8.8-11.2-11.3c-3.4-1.7-4.6-2-9.3-2.1C93.7,174.4,90.7,174.7,89.2,175.2z"/><path fill="#000000" d="M153.4,184.7c-5.6,2-9.3,7.4-9.3,13.3c0,4.1,1.5,7.4,4.4,10.3c4.1,4,3.2,4,46.4,4c28.3,0,39.4-0.2,41.1-0.7c3.6-1.1,7.9-5.3,9.1-8.9c1.8-5.3,0.5-10.8-3.4-14.6c-4.1-4.1-1.2-3.9-45.9-4C163.3,183.9,155.2,184,153.4,184.7z"/></g></g></g></svg>