
<svg version="1.0" xmlns="http://www.w3.org/2000/svg" width="980.000000pt" height="982.000000pt" viewBox="0 0 980.000000 982.000000" preserveAspectRatio="xMidYMid meet"><g transform="translate(0.000000,982.000000) scale(0.100000,-0.100000)" fill="#ffffff" stroke="none"><path d="M4330 9785 c-891 -117 -1683 -433 -2365 -943 -474 -355 -916 -835 -1227 -1332 -248 -397 -486 -955 -598 -1400 -116 -464 -147 -759 -137 -1325 6 -341 14 -442 48 -655 124 -779 448 -1537 927 -2170 241 -318 554 -639 854 -878 398 -316 832 -566 1313 -755 323 -127 732 -234 1080 -282 288 -40 980 -46 1265 -11 980 122 1905 540 2660 1201 124 109 385 375 486 495 578 689 945 1477 1104 2370 54 305 74 785 50 1195 -27 442 -146 951 -337 1435 -191 486 -449 916 -802 1340 -115 138 -417 443 -556 562 -665 565 -1488 956 -2346 1112 -243 45 -576 66 -989 65 -205 -1 -289 -5 -430 -24z m-810 -893 c0 -5 -44 -58 -97 -118 -153 -172 -359 -416 -494 -587 -17 -20 -17 -20 -75 13 -83 46 -314 194 -314 200 0 6 6 10 150 99 247 152 407 232 680 342 163 66 150 62 150 51z m1049 -636 l1 -568 -57 6 c-270 32 -594 94 -796 152 -130 37 -157 49 -157 67 0 63 703 774 932 943 l63 46 7 -38 c4 -22 7 -295 7 -608z m1981 532 c229 -101 607 -302 689 -366 l24 -19 -34 -26 c-41 -30 -330 -207 -340 -207 -4 0 -44 46 -90 103 -149 184 -281 340 -394 467 -156 177 -151 165 -64 134 41 -14 135 -53 209 -86z m-1202 30 c323 -247 892 -829 892 -912 0 -17 -65 -39 -275 -91 -211 -51 -633 -125 -721 -125 -12 0 -14 82 -14 593 0 327 3 597 7 600 11 11 13 10 111 -65z m-3135 -991 c106 -67 217 -137 247 -155 96 -58 94 -55 80 -99 -7 -21 -53 -122 -101 -225 -112 -234 -187 -424 -285 -712 l-76 -226 -554 -2 c-632 -3 -572 -14 -530 94 55 144 213 452 331 645 175 285 631 828 680 809 9 -3 103 -61 208 -129z m5714 16 c229 -233 475 -563 648 -868 113 -198 266 -537 250 -553 -4 -4 -254 -7 -557 -7 l-550 0 -77 225 c-130 380 -196 536 -409 962 -2 3 59 43 135 89 76 45 197 121 268 169 72 48 137 89 145 92 25 9 51 -11 147 -109z m-4556 -573 c337 -104 597 -161 929 -205 107 -14 212 -28 233 -31 l37 -6 0 -315 0 -316 -897 7 c-494 5 -899 9 -901 11 -11 11 186 488 294 710 79 163 99 195 123 195 10 0 92 -23 182 -50z m3272 18 c30 -40 137 -254 200 -398 53 -123 177 -455 177 -476 0 -12 -131 -14 -895 -14 l-895 0 0 315 0 314 33 5 c17 3 91 13 162 22 342 41 690 116 995 213 85 28 165 50 177 51 13 0 31 -13 46 -32z m-5198 -1540 c3 -13 25 -171 50 -353 53 -387 114 -798 120 -804 3 -2 7 2 9 10 9 23 71 343 146 754 40 215 76 395 82 400 5 6 102 11 236 13 178 2 231 0 245 -11 16 -11 30 -83 83 -428 88 -574 116 -727 127 -699 9 21 46 244 117 710 53 345 63 397 81 413 19 15 45 17 213 17 218 0 240 -3 233 -34 -3 -11 -96 -393 -208 -848 l-203 -828 -257 0 -257 0 -10 58 c-5 31 -47 290 -93 575 -56 349 -86 511 -91 495 -4 -12 -51 -261 -103 -553 -52 -291 -98 -542 -101 -557 l-6 -28 -258 0 c-238 0 -259 1 -264 18 -3 9 -75 323 -161 697 -86 374 -172 747 -191 829 -18 82 -34 152 -34 157 0 14 35 17 262 18 l228 1 5 -22z m2813 4 c15 -15 33 -121 96 -573 43 -304 81 -570 85 -589 7 -34 7 -35 14 -9 8 33 130 682 183 978 l39 214 248 -5 c136 -3 249 -7 251 -9 2 -2 43 -258 91 -569 90 -586 96 -623 101 -618 1 2 34 208 74 458 76 486 107 681 116 719 l5 24 225 -5 c124 -3 227 -8 230 -10 4 -4 -135 -579 -385 -1593 l-27 -110 -257 -3 c-141 -1 -257 0 -257 3 0 20 -163 986 -176 1045 -15 63 -19 71 -25 50 -5 -14 -36 -178 -69 -365 -119 -663 -128 -709 -147 -722 -24 -18 -472 -18 -495 0 -11 8 -74 261 -202 817 -102 443 -189 824 -194 848 l-10 42 234 0 c212 0 236 -2 252 -18z m2842 13 c0 -3 31 -224 70 -493 73 -513 98 -662 109 -662 4 0 12 26 18 58 7 31 39 203 73 382 139 741 130 700 157 711 14 5 126 8 252 7 l226 -3 42 -280 c70 -461 124 -797 136 -850 l11 -50 8 45 c5 25 46 287 93 584 46 296 86 540 89 543 7 7 466 17 466 11 0 -10 -108 -453 -266 -1090 l-156 -628 -254 0 -254 0 -5 23 c-3 12 -32 192 -65 399 -94 597 -112 702 -119 711 -8 8 -28 -97 -142 -728 -39 -217 -75 -393 -82 -397 -7 -4 -112 -9 -234 -10 -123 -1 -235 -2 -250 -2 -26 -1 -26 -1 -79 229 -246 1077 -323 1415 -329 1447 -6 30 -4 37 12 41 25 6 473 8 473 2z m-5154 -2362 l140 -6 73 -221 c109 -328 181 -502 331 -801 74 -148 135 -273 135 -277 0 -4 -49 -35 -109 -68 -60 -33 -176 -104 -258 -156 -82 -52 -155 -97 -162 -100 -17 -6 -247 215 -362 350 -158 183 -319 402 -439 596 -105 170 -325 620 -325 665 0 9 16 15 43 18 75 6 788 7 933 0z m2624 -381 l0 -388 -145 -13 c-293 -25 -659 -99 -1020 -207 -113 -34 -155 -43 -171 -35 -55 25 -463 921 -464 1019 0 9 187 12 900 12 l900 0 0 -388z m2455 377 c17 -18 -171 -500 -271 -695 -86 -168 -173 -314 -195 -327 -12 -7 -57 3 -165 36 -352 109 -778 194 -1061 213 l-103 7 0 389 0 390 894 -4 c492 -2 897 -6 901 -9z m1801 -2 c11 -11 -46 -147 -158 -370 -184 -370 -369 -637 -674 -977 -93 -103 -274 -280 -288 -280 -3 0 -56 33 -118 74 -62 40 -178 111 -258 156 -80 46 -149 86 -153 90 -4 4 48 117 116 251 164 324 229 481 358 874 29 88 56 165 61 170 5 6 39 13 76 16 96 9 1029 6 1038 -4z m-4256 -1891 c0 -446 -5 -586 -20 -586 -33 0 -323 262 -597 540 -195 198 -293 310 -293 335 0 25 247 87 550 139 187 32 191 33 283 35 l77 1 0 -464z m1034 425 c280 -48 536 -113 536 -137 0 -26 -92 -128 -344 -380 -334 -334 -533 -510 -554 -489 -4 4 -8 241 -10 527 l-3 521 98 -6 c54 -3 179 -19 277 -36z m-2532 -483 c41 -46 108 -123 150 -173 41 -49 127 -148 191 -220 64 -71 114 -131 112 -133 -10 -10 -331 126 -518 219 -127 63 -300 159 -332 185 -20 16 -19 16 12 42 35 29 281 162 300 162 6 0 44 -37 85 -82z m3848 31 c55 -27 127 -68 161 -91 l63 -40 -25 -19 c-49 -37 -228 -139 -364 -207 -137 -69 -473 -208 -481 -199 -3 2 55 71 128 153 73 82 169 192 212 244 92 110 187 210 199 210 5 0 53 -23 107 -51z"/></g></svg>
